<svg xmlns="http://www.w3.org/2000/svg" width="20" height="20" viewBox="0 0 20 20">
  <title>camera</title>
  <g id="Layer_1" data-name="Layer 1">
    <g>
      <path d="M10,6a5,5,0,1,0,5,5A5,5,0,0,0,10,6Zm0,8a3,3,0,1,1,3-3A3,3,0,0,1,10,14Z"/>
      <path d="M17,3H15.41L13.71,1.29A1,1,0,0,0,13,1H7a1,1,0,0,0-.71.29L4.59,3H3A3,3,0,0,0,0,6V17a3,3,0,0,0,3,3H17a3,3,0,0,0,3-3V6A3,3,0,0,0,17,3Zm1,14a1,1,0,0,1-1,1H3a1,1,0,0,1-1-1V6A1,1,0,0,1,3,5H5a1,1,0,0,0,.71-.29L7.41,3h5.17l1.71,1.71A1,1,0,0,0,15,5h2a1,1,0,0,1,1,1Z"/>
    </g>
  </g>
</svg>
