<svg xmlns="http://www.w3.org/2000/svg" width="20" height="20" viewBox="0 0 20 20">
  <title>chat</title>
  <g id="Layer_1" data-name="Layer 1">
    <g>
      <path d="M10,10H6a1,1,0,1,0,0,2h4a1,1,0,1,0,0-2Z"/>
      <path d="M14,6H6A1,1,0,1,0,6,8h8a1,1,0,1,0,0-2Z"/>
      <path d="M16,1H4A3,3,0,0,0,1,4L.94,19a1,1,0,0,0,1.71.71L5.35,17H15.94a3,3,0,0,0,3-3L19,4A3,3,0,0,0,16,1Zm.94,13a.94.94,0,0,1-1,1h-11a1,1,0,0,0-.71.29L2.94,16.59,3,4A.94.94,0,0,1,4,3H16a.94.94,0,0,1,1,1Z"/>
    </g>
  </g>
</svg>
