<?xml version="1.0" encoding="utf-8"?>
<!-- Generator: Adobe Illustrator 21.1.0, SVG Export Plug-In . SVG Version: 6.00 Build 0)  -->
<svg version="1.1" id="Layer_1" xmlns="http://www.w3.org/2000/svg" xmlns:xlink="http://www.w3.org/1999/xlink" x="0px" y="0px"
	 viewBox="0 0 100 80" style="enable-background:new 0 0 100 80;" xml:space="preserve">
<style type="text/css">
	.st0{fill:#010101;}
</style>
<g>
	<path class="st0" d="M95.4,25H4.7c-4.6,0-4.8,2.2-4.6,5l4.1,45c0.2,2.7,0.9,5,5.5,5h80.6c4.7,0,5.2-2.2,5.5-5l4.1-45
		C100.2,27.2,100,25,95.4,25z M92,14c-0.6-2.2-3.3-4-6-4H51.9c-2.8,0-6.6-1.6-8.6-3.5l-3-2.9c-2-1.9-5.8-3.5-8.6-3.5H15.4
		c-2.8,0-5.3,2.2-5.6,5L8.4,18H93L92,14z"/>
</g>
</svg>
