<svg xmlns="http://www.w3.org/2000/svg" width="20" height="20" viewBox="0 0 20 20">
  <title>heart</title>
  <g id="Layer_1" data-name="Layer 1">
    <path d="M14.5,1A7,7,0,0,0,10,3.22,7,7,0,0,0,5.5,1,5.53,5.53,0,0,0,0,6.5C0,14,9.42,19.81,9.45,19.83a1,1,0,0,0,1.11,0h0S20,14,20,6.5A5.53,5.53,0,0,0,14.5,1ZM10,17.8c-1.9-1.32-8-6-8-11.3A3.52,3.52,0,0,1,5.5,3a4.92,4.92,0,0,1,3,1.57l.64.69a1.14,1.14,0,0,0,1.68,0l.64-.69A4.92,4.92,0,0,1,14.5,3,3.52,3.52,0,0,1,18,6.5C18,11.84,11.83,16.52,10,17.8Z"/>
  </g>
</svg>
