<svg xmlns="http://www.w3.org/2000/svg" width="20" height="20" viewBox="0 0 20 20">
  <title>link</title>
  <g id="Layer_1" data-name="Layer 1">
    <path d="M11.29,8.7a1,1,0,0,1-1.1.23,2,2,0,0,0-.93-.21l-.5.06a2.2,2.2,0,0,0-.9.52L4.32,12.84a2,2,0,0,0-.43.65,2,2,0,0,0,1.85,2.75,1.93,1.93,0,0,0,1.42-.58L7.87,15a1,1,0,0,1,1.42,1.41l-.71.72A3.82,3.82,0,0,1,7.26,18a4.11,4.11,0,0,1-1.52.29A4,4,0,0,1,4.23,18,4,4,0,0,1,2,15.77a4.07,4.07,0,0,1-.29-1.53A4,4,0,0,1,2,12.73a3.85,3.85,0,0,1,.87-1.31L6.46,7.88a3.65,3.65,0,0,1,.8-.6,3.78,3.78,0,0,1,2-.56,4.78,4.78,0,0,1,1,.14,4.88,4.88,0,0,1,1,.42,3.25,3.25,0,0,1,.8.6Zm-2.6,2.6a1,1,0,0,1,1.18-.16,1.9,1.9,0,0,0,.79.16,2.7,2.7,0,0,0,.54-.08,2.1,2.1,0,0,0,.9-.5l3.54-3.54a1.93,1.93,0,0,0,.58-1.42,1.9,1.9,0,0,0-.58-1.42,1.87,1.87,0,0,0-1.4-.58,1.93,1.93,0,0,0-1.42.58l-.71.71A1,1,0,1,1,10.7,3.63l.7-.69a4,4,0,0,1,1.31-.88,4,4,0,0,1,1.53-.3,3.9,3.9,0,0,1,1.51.3,4.1,4.1,0,0,1,2.19,2.19,3.95,3.95,0,0,1,0,3,4,4,0,0,1-.88,1.31l-3.54,3.54a4.19,4.19,0,0,1-.8.62,3.88,3.88,0,0,1-2,.54,3.71,3.71,0,0,1-1-.14,3.88,3.88,0,0,1-1-.4,4.8,4.8,0,0,1-.8-.62Z"/>
  </g>
</svg>
