<svg xmlns="http://www.w3.org/2000/svg" width="20" height="20" viewBox="0 0 20 20">
  <title>news</title>
  <g id="Layer_1" data-name="Layer 1">
    <g>
      <path d="M14,13H6a1,1,0,0,0,0,2h8a1,1,0,0,0,0-2Z"/>
      <path d="M6,7H9A1,1,0,1,0,9,5H6A1,1,0,1,0,6,7Z"/>
      <path d="M14,9H6a1,1,0,0,0,0,2h8a1,1,0,0,0,0-2Z"/>
      <path d="M16,0H4A3,3,0,0,0,1,3V17a3,3,0,0,0,3,3H16a3,3,0,0,0,3-3V3A3,3,0,0,0,16,0Zm1,17a1,1,0,0,1-1,1H4a1,1,0,0,1-1-1V3A1,1,0,0,1,4,2H16a1,1,0,0,1,1,1Z"/>
    </g>
    <g>
      <path d="M14,13H6a1,1,0,0,0,0,2h8a1,1,0,0,0,0-2Z"/>
      <path d="M6,7H9A1,1,0,1,0,9,5H6A1,1,0,1,0,6,7Z"/>
      <path d="M14,9H6a1,1,0,0,0,0,2h8a1,1,0,0,0,0-2Z"/>
      <path d="M16,0H4A3,3,0,0,0,1,3V17a3,3,0,0,0,3,3H16a3,3,0,0,0,3-3V3A3,3,0,0,0,16,0Zm1,17a1,1,0,0,1-1,1H4a1,1,0,0,1-1-1V3A1,1,0,0,1,4,2H16a1,1,0,0,1,1,1Z"/>
    </g>
  </g>
</svg>
