<?xml version="1.0" encoding="utf-8"?>
<!-- Generator: Adobe Illustrator 21.1.0, SVG Export Plug-In . SVG Version: 6.00 Build 0)  -->
<svg version="1.1" id="Layer_1" xmlns="http://www.w3.org/2000/svg" xmlns:xlink="http://www.w3.org/1999/xlink" x="0px" y="0px"
	 viewBox="0 0 567.1 122.3" style="enable-background:new 0 0 567.1 122.3;" xml:space="preserve">
<style type="text/css">
	.st0{fill:#FFFFFF;}
</style>
<g>
	<path class="st0" d="M193.3,21.7h-36.7v91h19.8V84.3h15c20.1,0,36.1-10.9,36.1-31.3v-0.3C227.4,34.5,214.3,21.7,193.3,21.7z
		 M207.3,53.3c0,7.7-5.7,13.4-15.6,13.4H176V39.3h15.3C201.2,39.6,207.3,44.1,207.3,53.3L207.3,53.3z M263.2,42.8
		c-21.1,0-35.1,16-35.1,35.8v0.3c0,21.1,15.3,35.4,37,35.4c11.8,0,20.1-3.5,26.2-9.3l-7.7-12.8c-5.7,4.1-11.8,6.4-18.2,6.4
		c-8.6,0-16-4.5-17.9-13.4h50.1c0-1.9,0.3-2.9,0.3-4.8v-0.3C297.6,60.7,287.1,42.8,263.2,42.8z M246.9,73.1c1.6-8.9,8-14.7,16-14.7
		c8.3,0,14.7,5.7,15.6,14.7H246.9z M325.1,49.5l-3.2-5.1h-16.3v68.3h19.5V64.5c0,0,6.1-2.6,13.4-2.6c4.8,0,8.6,0.3,8.6,0.3V42.8
		c-0.6,0-1.3,0-1.9,0C335.3,42.8,325.1,49.5,325.1,49.5z M386.7,21.4l-9.3-15.3c0,0-14,8.3-19.8,16.3c-4.8,6.7-5.7,15.6-5.7,22.3
		v67.7h19.5V59.7h15.3v-16h-15.3v-2.6C371.7,32.9,376.2,28.1,386.7,21.4z M404.9,15c-6.1,0-11.2,5.1-11.2,11.2
		c0,6.1,5.1,11.2,11.2,11.2c6.1,0,11.2-5.1,11.2-11.2C416.1,20.1,411,15,404.9,15z M395,112.7h19.5V44.1H395V112.7z M459.5,42.8
		c-21.4,0-37,16-37,35.8v0.3c0,19.8,15.6,35.4,37,35.4c21.4,0,37-16,37-35.8v-0.3C496.2,58.5,480.5,42.8,459.5,42.8z M477,78.9
		c0,10.2-6.7,18.5-17.9,18.5c-10.9,0-17.9-8.9-17.9-18.8v-0.3c0-10.2,6.7-18.5,17.9-18.5C469.7,59.7,477,68.3,477,78.9L477,78.9z
		 M566.7,67.4c0-3.2-0.6-6.7-1.6-9.6c-1-2.9-2.2-5.4-4.1-7.7c-2.2-2.6-5.1-4.5-8.3-5.4c-1.9-0.6-3.8-1.3-5.7-1.3c-0.6,0-1.3,0-1.9,0
		l0,0h-2.6c-0.3,0-0.3,0-0.6,0c-3.2,0.3-6.4,1-9.6,2.2c-3.2,1-6.1,2.6-8.9,4.1l0,0c-0.3-0.3-0.6-1-1-1.3c-0.6-1.3-1.6-2.6-2.2-3.5
		c0,0,0,0-0.3,0c-5.4,0-10.5,0-16,0l0,0v68.3h19.5c0,0,0,0,0-0.3c0-16.3,0-32.9,0-49.2c0-0.3,0-0.3,0.3-0.3c1.6-0.6,3.2-1.3,4.8-1.6
		c1.9-0.3,4.1-0.6,6.4-0.6c1.6,0,3.5,0,5.1,0.6c2.6,1,4.5,2.6,5.7,5.1c0.6,1.6,1.3,3.2,1.6,4.8c0.3,1.3,0.3,2.6,0.3,3.8
		c0,12.4,0,24.9,0,37.7v0.3h19.5V69C566.7,67.7,566.7,67.4,566.7,67.4z"/>
</g>
<g>
	<path class="st0" d="M18.2,85.2c-4.5,0-8.3,2.6-10.2,6.7c-0.6,1.3-1,2.9-1,4.5c0,6.1,5.1,11.2,11.2,11.2c1,0,1.6,0,2.2-0.3
		c5.1-1,8.6-5.4,8.6-10.9C29.4,90.3,24.6,85.2,18.2,85.2"/>
	<path class="st0" d="M18.2,55.5C11.5,55.5,5.4,57.1,0,60c0,0.3,0,1,0,1.3C0,66.4,0.6,71.5,1.9,76c4.5-3.5,10.2-5.7,16.3-5.7
		c14.4,0,26.2,11.8,26.2,26.2c0,8.3-3.8,15.3-9.6,20.1c4.8,2.2,9.9,4.1,15.3,5.1c5.4-7,8.9-15.6,8.9-25.2
		C59.1,74.1,40.9,55.5,18.2,55.5"/>
	<path class="st0" d="M61.3,0C42.1,0,24.9,8.9,13.7,22.7c-3.8,4.8-7,10.2-9.6,16.3c4.5-1,9.3-1.6,14-1.6c32.9,0,59.4,26.5,59.4,59.4
		c0,8.9-2.2,17.6-5.7,25.5c6.4-1,12.1-3.2,17.9-6.1c19.5-10.2,32.9-31.3,32.9-54.9C122.6,27.5,95.1,0,61.3,0z"/>
</g>
</svg>
