<svg xmlns="http://www.w3.org/2000/svg" width="20" height="20" viewBox="0 0 20 20" fill="#7f7f7f">
  <title>settings</title>
  <g id="Layer_1" data-name="Layer 1">
    <path d="M17.8,8.26a7.94,7.94,0,0,0-1.05-2.54,1,1,0,0,1,.15-1.21l.17-.17a1,1,0,0,0,0-1.41h0a1,1,0,0,0-1.41,0l-.17.17a1,1,0,0,1-1.21.15A7.94,7.94,0,0,0,11.74,2.2a1,1,0,0,1-.74-1V1a1,1,0,0,0-1-1h0A1,1,0,0,0,9,1v.23a1,1,0,0,1-.74,1A7.94,7.94,0,0,0,5.72,3.25a1,1,0,0,1-1.21-.15l-.17-.17a1,1,0,0,0-1.41,0h0a1,1,0,0,0,0,1.41l.17.17a1,1,0,0,1,.15,1.21A7.94,7.94,0,0,0,2.2,8.26a1,1,0,0,1-1,.74H1a1,1,0,0,0-1,1H0a1,1,0,0,0,1,1h.23a1,1,0,0,1,1,.74,7.94,7.94,0,0,0,1.05,2.54,1,1,0,0,1-.15,1.21l-.17.17a1,1,0,0,0,0,1.41h0a1,1,0,0,0,1.41,0l.17-.17a1,1,0,0,1,1.21-.15A7.94,7.94,0,0,0,8.26,17.8a1,1,0,0,1,.74,1V19a1,1,0,0,0,1,1h0a1,1,0,0,0,1-1v-.23a1,1,0,0,1,.74-1,7.94,7.94,0,0,0,2.54-1.05,1,1,0,0,1,1.21.15l.17.17a1,1,0,0,0,1.41,0h0a1,1,0,0,0,0-1.41l-.17-.17a1,1,0,0,1-.15-1.21,7.94,7.94,0,0,0,1.05-2.54,1,1,0,0,1,1-.74H19a1,1,0,0,0,1-1h0a1,1,0,0,0-1-1h-.23A1,1,0,0,1,17.8,8.26ZM10,16a6,6,0,1,1,6-6A6,6,0,0,1,10,16Z"/>
    <path d="M10,11.75A1.75,1.75,0,1,1,11.75,10,1.75,1.75,0,0,1,10,11.75Z"/>
  </g>
</svg>
