<svg xmlns="http://www.w3.org/2000/svg" width="20" height="20" viewBox="0 0 20 20" fill="#c3c6c9">
  <title>tag</title>
  <g id="Layer_1" data-name="Layer 1">
    <g>
      <path d="M17,0H12A4.48,4.48,0,0,0,8.88,1.26l-8,8a3,3,0,0,0,0,4.24l5.66,5.66a3,3,0,0,0,4.24,0l8-8A4.48,4.48,0,0,0,20,8V3A3,3,0,0,0,17,0Zm.32,9.7-8,8a1,1,0,0,1-1.41,0L2.29,12.05a1,1,0,0,1,0-1.41l8-8A2.48,2.48,0,0,1,12,2h5a1,1,0,0,1,1,1V8A2.48,2.48,0,0,1,17.32,9.7Z"/>
      <circle cx="14.33" cy="5.67" r="1.75"/>
    </g>
  </g>
</svg>
