<svg xmlns="http://www.w3.org/2000/svg" width="20" height="20" viewBox="0 0 20 20">
  <title>trash</title>
  <g id="Layer_1" data-name="Layer 1">
    <g>
      <path d="M9,15V9A1,1,0,1,0,7,9v6a1,1,0,1,0,2,0Z"/>
      <path d="M13,15V9a1,1,0,1,0-2,0v6a1,1,0,1,0,2,0Z"/>
    </g>
    <path d="M15,4V17a.94.94,0,0,1-1,1H6a.94.94,0,0,1-1-1V4H3V17a3,3,0,0,0,3,3h8a3,3,0,0,0,3-3V4Z"/>
    <rect x="1" y="4" width="18" height="2" rx="1" ry="1"/>
    <rect x="5" width="10" height="2" rx="1" ry="1"/>
    <rect x="5" y="1" width="2" height="3"/>
    <rect x="13" y="1" width="2" height="3"/>
  </g>
</svg>
